<svg xmlns="http://www.w3.org/2000/svg" width="69" height="16" viewBox="0 0 69 16"><defs><clipPath id="niqfa"><path fill="#fff" d="M0 16V0h16v16zm2-8c0 3.314 2.688 6 6.005 6a6.002 6.002 0 0 0 6.005-6c0-3.314-2.689-6-6.005-6A6.002 6.002 0 0 0 2 8z"/></clipPath></defs><g><g><g><g><path fill="#fff" d="M28.53 3c2.503 0 4.531 2.015 4.531 4.5s-2.028 4.5-4.53 4.5C26.028 12 24 9.985 24 7.5S26.028 3 28.53 3z"/></g><g opacity=".46"><path fill="#1f273f" d="M8.005 2a6.002 6.002 0 0 1 6.005 6c0 3.314-2.689 6-6.005 6A6.002 6.002 0 0 1 2 8c0-3.314 2.688-6 6.005-6z"/><path fill="none" stroke="#fff" stroke-miterlimit="20" stroke-width="4" d="M8.005 2a6.002 6.002 0 0 1 6.005 6c0 3.314-2.689 6-6.005 6A6.002 6.002 0 0 1 2 8c0-3.314 2.688-6 6.005-6z" clip-path="url(&quot;#niqfa&quot;)"/></g><g><path fill="#1f273f" d="M8.005 2a6.002 6.002 0 0 1 6.005 6c0 3.314-2.689 6-6.005 6A6.002 6.002 0 0 1 2 8c0-3.314 2.688-6 6.005-6z"/></g><g><path fill="#ed3333" d="M45.146 3C47.661 3 49.7 5.015 49.7 7.5S47.661 12 45.146 12s-4.554-2.015-4.554-4.5S42.63 3 45.146 3z"/></g><g><path fill="#29e3ea" d="M64.47 3C66.971 3 69 5.015 69 7.5S66.972 12 64.47 12c-2.503 0-4.531-2.015-4.531-4.5S61.967 3 64.469 3z"/></g></g></g></g></svg>