<svg xmlns="http://www.w3.org/2000/svg" width="802" height="507" viewBox="0 0 802 507"><defs><mask id="adt3b" width="2" height="2" x="-1" y="-1"><path fill="#fff" d="M58 58h686v391H58z"/><path d="M68 58h666c5.523 0 10 4.477 10 10v371c0 5.523-4.477 10-10 10H68c-5.523 0-10-4.477-10-10V68c0-5.523 4.477-10 10-10z"/></mask><filter id="adt3a" width="836" height="541" x="-17" y="-17" filterUnits="userSpaceOnUse"><feOffset in="SourceGraphic" result="FeOffset1059Out"/><feGaussianBlur in="FeOffset1059Out" result="FeGaussianBlur1060Out" stdDeviation="26 26"/></filter></defs><g><g><g filter="url(#adt3a)"><path fill="none" d="M68 58h666c5.523 0 10 4.477 10 10v371c0 5.523-4.477 10-10 10H68c-5.523 0-10-4.477-10-10V68c0-5.523 4.477-10 10-10z" mask="url(&quot;#adt3b&quot;)"/><path fill-opacity=".82" d="M68 58h666c5.523 0 10 4.477 10 10v371c0 5.523-4.477 10-10 10H68c-5.523 0-10-4.477-10-10V68c0-5.523 4.477-10 10-10z"/></g><path fill="#111a28" d="M68 58h666c5.523 0 10 4.477 10 10v371c0 5.523-4.477 10-10 10H68c-5.523 0-10-4.477-10-10V68c0-5.523 4.477-10 10-10z"/></g></g></svg>